<?xml version="1.0" encoding="UTF-8"?>
<svg id="Capa_1" xmlns="http://www.w3.org/2000/svg" xmlns:xlink="http://www.w3.org/1999/xlink" version="1.1" viewBox="0 0 612 182">
  <!-- Generator: Adobe Illustrator 29.7.1, SVG Export Plug-In . SVG Version: 2.1.1 Build 8)  -->
  <defs>
    <style>
      .st0 {
        fill: url(#Degradado_sin_nombre_3);
      }

      .st1 {
        fill: url(#Degradado_sin_nombre_37);
      }

      .st2 {
        fill: url(#Degradado_sin_nombre_35);
      }

      .st3 {
        fill: url(#Degradado_sin_nombre_34);
      }

      .st4 {
        fill: url(#Degradado_sin_nombre_36);
      }

      .st5 {
        fill: url(#Degradado_sin_nombre_33);
      }

      .st6 {
        fill: url(#Degradado_sin_nombre_32);
      }

      .st7 {
        fill: url(#Degradado_sin_nombre_31);
      }
    </style>
    <linearGradient id="Degradado_sin_nombre_3" data-name="Degradado sin nombre 3" x1="33.68" y1="91" x2="546.4" y2="91" gradientUnits="userSpaceOnUse">
      <stop offset="0" stop-color="#d539b5"/>
      <stop offset=".05" stop-color="#c83db6"/>
      <stop offset=".15" stop-color="#a848bb"/>
      <stop offset=".28" stop-color="#735bc3"/>
      <stop offset=".43" stop-color="#2a74ce"/>
      <stop offset=".52" stop-color="#0084d5"/>
      <stop offset="1" stop-color="#00bfb2"/>
    </linearGradient>
    <linearGradient id="Degradado_sin_nombre_31" data-name="Degradado sin nombre 3" x1="33.68" y1="112.9" x2="546.4" y2="112.9" xlink:href="#Degradado_sin_nombre_3"/>
    <linearGradient id="Degradado_sin_nombre_32" data-name="Degradado sin nombre 3" x1="33.68" x2="546.4" xlink:href="#Degradado_sin_nombre_3"/>
    <linearGradient id="Degradado_sin_nombre_33" data-name="Degradado sin nombre 3" x1="33.68" y1="114.42" x2="546.4" y2="114.42" xlink:href="#Degradado_sin_nombre_3"/>
    <linearGradient id="Degradado_sin_nombre_34" data-name="Degradado sin nombre 3" x1="33.68" x2="546.4" xlink:href="#Degradado_sin_nombre_3"/>
    <linearGradient id="Degradado_sin_nombre_35" data-name="Degradado sin nombre 3" x1="33.68" y1="112.81" x2="546.4" y2="112.81" xlink:href="#Degradado_sin_nombre_3"/>
    <linearGradient id="Degradado_sin_nombre_36" data-name="Degradado sin nombre 3" x1="33.68" y1="112.59" x2="546.4" y2="112.59" xlink:href="#Degradado_sin_nombre_3"/>
    <linearGradient id="Degradado_sin_nombre_37" data-name="Degradado sin nombre 3" x1="33.68" y1="33.7" x2="546.4" y2="33.7" xlink:href="#Degradado_sin_nombre_3"/>
  </defs>
  <g>
    <rect class="st0" x="184.77" y="20.33" width="14.53" height="141.34" rx="5.56" ry="5.56"/>
    <path class="st7" d="M386.27,130.96c-.83-12.42-7.62-20.9-20.19-25.2l-10.46-3.49c-7.65-2.55-11.16-6.64-10.73-12.59.14-6.11,5.18-11.01,11.45-11.16,5.5,0,11.03,3.04,11.98,8.13.37,1.98,2.01,4.56,7.64,4.56s7.74-3.68,7.2-6.28c-1.17-5.7-3.89-10.49-8.91-14.47-5.51-4.52-11.52-6.62-17.97-6.31-7.31.32-13.71,3.11-19.06,8.29-5.2,5.2-7.67,11.54-7.34,18.85.5,12.14,6.66,20.15,18.31,23.81l10.62,3.32c8.43,2.71,12.45,7.5,12.3,14.63-.15,4.32-1.38,7.57-3.76,9.95-2.7,2.7-6.36,4.08-11.22,4.23-3.56.15-6.8-1.34-9.85-4.39-2.67-2.67-4.25-5.56-4.63-7.64-.72-3.97-3.07-5.56-7.34-5.73s-8.02,1.63-7.48,6.08c.04.32.09.65.14.97.93,5.83,3.46,11.04,7.54,15.51,5.54,5.87,12.27,9.1,20.02,9.58.63.04,1.26.06,1.88.06,7.8,0,14.83-2.85,20.93-8.48,6.6-6.27,9.61-13.75,8.94-22.23Z"/>
    <path class="st6" d="M420.19,80.65h16.17c3.32,0,6.02-2.7,6.02-6.02v-1.69c0-3.32-2.7-6.03-6.02-6.03h-16.17c-1.95,0-3.54-1.59-3.54-3.54V26.35c0-3.32-2.7-6.02-6.02-6.02h-2.64c-3.32,0-6.02,2.7-6.02,6.02v106.18c0,17.91,9.78,27.7,29.07,29.13.15,0,.3.01.44.01,1.49,0,2.9-.56,4.01-1.59,1.23-1.14,1.94-2.76,1.94-4.44v-.53c0-3.03-2.34-5.6-5.44-5.97-10.32-1.25-15.33-7.35-15.33-18.66v-46.27c0-1.95,1.59-3.54,3.54-3.54Z"/>
    <path class="st5" d="M492.95,68.32c-.93-.84-2.15-1.26-3.41-1.13-3.68.37-6.95,1.1-10.88,3.36-2.23,1.28-4.28,4.09-6.02,5.68-.61.56-1.43.71-2.19.37-.75-.33-1.2-1.02-1.2-1.85,0-2.49-.44-5.94-4.52-5.94h-4.71c-2.49,0-4.52,2.03-4.52,4.52v83.83c0,2.49,2.03,4.52,4.52,4.52h6.13c2.49,0,4.52-2.03,4.52-4.52v-50.79c0-5.74.93-10.09,2.82-13.3,1.24-2.01,3.61-4.49,6.87-7.14,2.71-2.22,6.13-3.6,10.15-4.11,2.25-.28,3.94-2.2,3.94-4.47v-5.63c0-1.29-.55-2.52-1.51-3.39Z"/>
    <path class="st3" d="M153.04,161.67c-8.43,0-15.91-4.78-19.84-13.35-2.67-5.85-7.03-17.64-9.91-25.43-.73-1.99-1.35-3.64-1.77-4.76-.87-2.31-4.01-4.1-6.12-4.1-4.63,0-5.12.28-5.6.56-3.58,2.05-8.12.8-10.16-2.81-2.04-3.61-.79-8.2,2.78-10.26,3.74-2.16,7.17-2.53,12.98-2.53,8.45,0,17.06,5.92,20.03,13.78.43,1.14,1.06,2.84,1.81,4.87,2.63,7.12,7.04,19.05,9.48,24.39,1.43,3.12,4.4,6.3,10.43,3.66,3.1-1.35,3.39-6.16,2.23-9.01-2.65-6.53-35.89-87.36-38.8-94.42-1.28-3.1-2.25-6.46-4.39-6.46s-3.17,3.69-5.69,10.05c-3.84,9.69-31.46,77.38-35.53,86.84l-1.27,2.99c-5.15,12.16-10.99,25.95-25.34,25.95-5.98,0-10.74-1.8-14.15-5.33-5.79-6.02-5.55-14.91-5.38-21.4.02-.81.04-1.61.05-2.38.06-5.25,0-68.56,0-69.05,0-4.16,3.33-7.53,7.44-7.53h0c4.11,0,7.44,3.36,7.45,7.51,0,2.01.06,63.9,0,69.24,0,.84-.03,1.72-.06,2.62-.09,3.38-.17,10.3,4.64,11.28,4.81.98,7.21-6.35,11.64-16.82l1.3-3.07c3.97-9.24,31.85-77.58,35.36-86.44,3.67-9.27,9.12-19.9,18.74-19.9,8.06,0,14.8,6.43,18.92,16.13,2.98,7.03,36.17,87.94,38.83,94.48,4.01,9.85,1.28,23.56-10.09,28.53-3.38,1.48-6.78,2.19-10.03,2.19Z"/>
    <path class="st2" d="M297.76,79.33c-9-9.32-19.84-14.46-32.22-15.28-13.66-.8-25.75,3.91-35.99,13.99-10.04,9.88-14.97,21.92-14.65,35.78.17,13.15,5.06,24.28,14.97,34.02,9.5,9.18,20.62,13.83,33.06,13.83.22,0,.43,0,.65,0,10.2-.16,19.19-3.09,27.49-8.95,6.06-4.28,10.88-9.75,14.35-16.28.92-1.74.52-7.27-3.7-9.13-4.22-1.86-8.37,1.15-9.38,3.01-6.11,11.17-15.38,16.67-28.33,16.81-8.68.18-16.44-2.69-23.11-8.42-4.99-4.3-9.08-10.73-10.09-15.92-.66-3.38-.89-5.48-.89-10.65,0-7.3.91-9.93,1.61-12.13,1.46-4.63,5.46-10.15,9.97-13.78,6.18-4.98,13.36-7.5,21.34-7.5.23,0,.46,0,.69,0,8.39.15,15.65,2.77,21.58,7.79,4.33,3.66,7.57,8.19,9.63,13.48.42,1.08.28,2.25-.38,3.22-.67.98-1.78,1.57-2.97,1.57h-33.49c-5.7,0-8.93,1.9-8.93,6.87s3.61,6.71,8.93,6.71h46.68c3.51,0,6.35-2.84,6.35-6.35v-1.39c0-11.53-4.44-22.06-13.19-31.31Z"/>
    <path class="st4" d="M590,96.38c0-.32-1.15-32.14-40.5-32.77v-.1s-1.32.08-1.32.08l-1.32-.07v.09c-12.97.16-24.29,2.85-33.68,8.05-2.44,1.36-4.9,5.98-2.77,9.95,2.13,3.97,7.48,3.62,10.14,2.32,7.81-3.82,17.49-5.98,27.65-5.81,10.09.13,27.19,4.12,27.29,18.29l-.02,35.95c0,.49-.16.94-.47,1.27-8.38,9.22-23.01,13.35-33.8,13.35-13.16,0-27.33-5.75-27.33-18.36v-.46c0-12.62,14.17-18.37,27.33-18.37,2.98,0,6.16.47,9.6,1.06,4.33.74,9.66-.25,10.13-5.44s-2.1-8.15-7.22-8.97c-3.25-.52-7.44-1.08-11.07-1.14h-2.79c-.9.02-1.77.05-2.62.1-5.07.12-9.97,1.05-14.56,2.76-5.67,2.01-10.46,5.07-14.21,9.07l-.5.52c-5.35,5.65-8.3,12.49-8.54,19.74-.02.32-.03.62-.03.95l.02.72c.23,9.03,4.64,17.38,12.42,23.51,1.02.82,2.12,1.6,3.27,2.32.34.21.69.42,1.05.63.4.23.8.46,1.35.76,6.23,3.35,13.42,5.12,20.79,5.12h.71c.85,0,2.1,0,2.11-.01l1.42.19v-.2c11.11-.2,21.23-3,30.11-8.35.8-.48,1.55-.17,1.83-.02.61.35.98.97.98,1.67,0,2.41,1.96,4.37,4.37,4.37h5.8c2.41,0,4.37-1.96,4.37-4.37v-58.39Z"/>
  </g>
  <circle class="st1" cx="36.37" cy="33.7" r="13.37"/>
</svg>